<?xml version="1.0" encoding="UTF-8" standalone="no"?>
<!DOCTYPE svg PUBLIC "-//W3C//DTD SVG 1.1//EN"
 "http://www.w3.org/Graphics/SVG/1.1/DTD/svg11.dtd">
<!-- Generated by graphviz version 2.43.0 (0)
 -->
<!-- Title: wordcount01 Pages: 1 -->
<svg width="100%" height="100%" xmlns="http://www.w3.org/2000/svg" xmlns:xlink="http://www.w3.org/1999/xlink">
<script type="text/ecmascript"><![CDATA[
/**
 *  SVGPan library 1.2.2
 * ======================
 *
 * Given an unique existing element with id "viewport" (or when missing, the
 * first g-element), including the library into any SVG adds the following
 * capabilities:
 *
 *  - Mouse panning
 *  - Mouse zooming (using the wheel)
 *  - Object dragging
 *
 * You can configure the behaviour of the pan/zoom/drag with the variables
 * listed in the CONFIGURATION section of this file.
 *
 * Known issues:
 *
 *  - Zooming (while panning) on Safari has still some issues
 *
 * Releases:
 *
 * 1.2.2, Tue Aug 30 17:21:56 CEST 2011, Andrea Leofreddi
 *	- Fixed viewBox on root tag (#7)
 *	- Improved zoom speed (#2)
 *
 * 1.2.1, Mon Jul  4 00:33:18 CEST 2011, Andrea Leofreddi
 *	- Fixed a regression with mouse wheel (now working on Firefox 5)
 *	- Working with viewBox attribute (#4)
 *	- Added "use strict;" and fixed resulting warnings (#5)
 *	- Added configuration variables, dragging is disabled by default (#3)
 *
 * 1.2, Sat Mar 20 08:42:50 GMT 2010, Zeng Xiaohui
 *	Fixed a bug with browser mouse handler interaction
 *
 * 1.1, Wed Feb  3 17:39:33 GMT 2010, Zeng Xiaohui
 *	Updated the zoom code to support the mouse wheel on Safari/Chrome
 *
 * 1.0, Andrea Leofreddi
 *	First release
 *
 * This code is licensed under the following BSD license:
 *
 * Copyright 2009-2017 Andrea Leofreddi <a.leofreddi@vleo.net>. All rights reserved.
 *
 * Redistribution and use in source and binary forms, with or without modification, are
 * permitted provided that the following conditions are met:
 *
 *    1. Redistributions of source code must retain the above copyright
 *       notice, this list of conditions and the following disclaimer.
 *    2. Redistributions in binary form must reproduce the above copyright
 *       notice, this list of conditions and the following disclaimer in the
 *       documentation and/or other materials provided with the distribution.
 *    3. Neither the name of the copyright holder nor the names of its
 *       contributors may be used to endorse or promote products derived from
 *       this software without specific prior written permission.
 *
 * THIS SOFTWARE IS PROVIDED BY COPYRIGHT HOLDERS AND CONTRIBUTORS ''AS IS'' AND ANY EXPRESS
 * OR IMPLIED WARRANTIES, INCLUDING, BUT NOT LIMITED TO, THE IMPLIED WARRANTIES OF MERCHANTABILITY
 * AND FITNESS FOR A PARTICULAR PURPOSE ARE DISCLAIMED. IN NO EVENT SHALL COPYRIGHT HOLDERS OR
 * CONTRIBUTORS BE LIABLE FOR ANY DIRECT, INDIRECT, INCIDENTAL, SPECIAL, EXEMPLARY, OR
 * CONSEQUENTIAL DAMAGES (INCLUDING, BUT NOT LIMITED TO, PROCUREMENT OF SUBSTITUTE GOODS OR
 * SERVICES; LOSS OF USE, DATA, OR PROFITS; OR BUSINESS INTERRUPTION) HOWEVER CAUSED AND ON
 * ANY THEORY OF LIABILITY, WHETHER IN CONTRACT, STRICT LIABILITY, OR TORT (INCLUDING
 * NEGLIGENCE OR OTHERWISE) ARISING IN ANY WAY OUT OF THE USE OF THIS SOFTWARE, EVEN IF
 * ADVISED OF THE POSSIBILITY OF SUCH DAMAGE.
 *
 * The views and conclusions contained in the software and documentation are those of the
 * authors and should not be interpreted as representing official policies, either expressed
 * or implied, of Andrea Leofreddi.
 */

"use strict";

/// CONFIGURATION
/// ====>

var enablePan = 1; // 1 or 0: enable or disable panning (default enabled)
var enableZoom = 1; // 1 or 0: enable or disable zooming (default enabled)
var enableDrag = 0; // 1 or 0: enable or disable dragging (default disabled)
var zoomScale = 0.2; // Zoom sensitivity

/// <====
/// END OF CONFIGURATION

var root = document.documentElement;

var state = 'none', svgRoot = null, stateTarget, stateOrigin, stateTf;

setupHandlers(root);

/**
 * Register handlers
 */
function setupHandlers(root){
	setAttributes(root, {
		"onmouseup" : "handleMouseUp(evt)",
		"onmousedown" : "handleMouseDown(evt)",
		"onmousemove" : "handleMouseMove(evt)",
		//"onmouseout" : "handleMouseUp(evt)", // Decomment this to stop the pan functionality when dragging out of the SVG element
	});

	if(navigator.userAgent.toLowerCase().indexOf('webkit') >= 0)
		window.addEventListener('mousewheel', handleMouseWheel, false); // Chrome/Safari
	else
		window.addEventListener('DOMMouseScroll', handleMouseWheel, false); // Others
}

/**
 * Retrieves the root element for SVG manipulation. The element is then cached into the svgRoot global variable.
 */
function getRoot(root) {
	if(svgRoot == null) {
		var r = root.getElementById("viewport") ? root.getElementById("viewport") : root.documentElement, t = r;

		while(t != root) {
			if(t.getAttribute("viewBox")) {
				setCTM(r, t.getCTM());

				t.removeAttribute("viewBox");
			}

			t = t.parentNode;
		}

		svgRoot = r;
	}

	return svgRoot;
}

/**
 * Instance an SVGPoint object with given event coordinates.
 */
function getEventPoint(evt) {
	var p = root.createSVGPoint();

	p.x = evt.clientX;
	p.y = evt.clientY;

	return p;
}

/**
 * Sets the current transform matrix of an element.
 */
function setCTM(element, matrix) {
	var s = "matrix(" + matrix.a + "," + matrix.b + "," + matrix.c + "," + matrix.d + "," + matrix.e + "," + matrix.f + ")";

	element.setAttribute("transform", s);
}

/**
 * Dumps a matrix to a string (useful for debug).
 */
function dumpMatrix(matrix) {
	var s = "[ " + matrix.a + ", " + matrix.c + ", " + matrix.e + "\n  " + matrix.b + ", " + matrix.d + ", " + matrix.f + "\n  0, 0, 1 ]";

	return s;
}

/**
 * Sets attributes of an element.
 */
function setAttributes(element, attributes){
	for (var i in attributes)
		element.setAttributeNS(null, i, attributes[i]);
}

/**
 * Handle mouse wheel event.
 */
function handleMouseWheel(evt) {
	if(!enableZoom)
		return;

	if(evt.preventDefault)
		evt.preventDefault();

	evt.returnValue = false;

	var svgDoc = evt.target.ownerDocument;

	var delta;

	if(evt.wheelDelta)
		delta = evt.wheelDelta / 360; // Chrome/Safari
	else
		delta = evt.detail / -9; // Mozilla

	var z = Math.pow(1 + zoomScale, delta);

	var g = getRoot(svgDoc);
	
	var p = getEventPoint(evt);

	p = p.matrixTransform(g.getCTM().inverse());

	// Compute new scale matrix in current mouse position
	var k = root.createSVGMatrix().translate(p.x, p.y).scale(z).translate(-p.x, -p.y);

        setCTM(g, g.getCTM().multiply(k));

	if(typeof(stateTf) == "undefined")
		stateTf = g.getCTM().inverse();

	stateTf = stateTf.multiply(k.inverse());
}

/**
 * Handle mouse move event.
 */
function handleMouseMove(evt) {
	if(evt.preventDefault)
		evt.preventDefault();

	evt.returnValue = false;

	var svgDoc = evt.target.ownerDocument;

	var g = getRoot(svgDoc);

	if(state == 'pan' && enablePan) {
		// Pan mode
		var p = getEventPoint(evt).matrixTransform(stateTf);

		setCTM(g, stateTf.inverse().translate(p.x - stateOrigin.x, p.y - stateOrigin.y));
	} else if(state == 'drag' && enableDrag) {
		// Drag mode
		var p = getEventPoint(evt).matrixTransform(g.getCTM().inverse());

		setCTM(stateTarget, root.createSVGMatrix().translate(p.x - stateOrigin.x, p.y - stateOrigin.y).multiply(g.getCTM().inverse()).multiply(stateTarget.getCTM()));

		stateOrigin = p;
	}
}

/**
 * Handle click event.
 */
function handleMouseDown(evt) {
	if(evt.preventDefault)
		evt.preventDefault();

	evt.returnValue = false;

	var svgDoc = evt.target.ownerDocument;

	var g = getRoot(svgDoc);

	if(
		evt.target.tagName == "svg"
		|| !enableDrag // Pan anyway when drag is disabled and the user clicked on an element
	) {
		// Pan mode
		state = 'pan';

		stateTf = g.getCTM().inverse();

		stateOrigin = getEventPoint(evt).matrixTransform(stateTf);
	} else {
		// Drag mode
		state = 'drag';

		stateTarget = evt.target;

		stateTf = g.getCTM().inverse();

		stateOrigin = getEventPoint(evt).matrixTransform(stateTf);
	}
}

/**
 * Handle mouse button release event.
 */
function handleMouseUp(evt) {
	if(evt.preventDefault)
		evt.preventDefault();

	evt.returnValue = false;

	var svgDoc = evt.target.ownerDocument;

	if(state == 'pan' || state == 'drag') {
		// Quit pan mode
		state = '';
	}
}
]]></script><g id="viewport" transform="scale(0.5,0.5) translate(0,0)"><g id="graph0" class="graph" transform="scale(1 1) rotate(0) translate(4 1496)">
<title>wordcount01</title>
<polygon fill="white" stroke="transparent" points="-4,4 -4,-1496 1126,-1496 1126,4 -4,4"/>
<g id="clust1" class="cluster">
<title>cluster_L</title>
<polygon fill="none" stroke="black" points="8,-1315 8,-1484 530,-1484 530,-1315 8,-1315"/>
</g>
<!-- File: wordcount01 -->
<g id="node1" class="node">
<title>File: wordcount01</title>
<g id="a_node1"><a xlink:title="wordcount01">
<polygon fill="#f8f8f8" stroke="black" points="521.5,-1476 16.5,-1476 16.5,-1323 521.5,-1323 521.5,-1476"/>
<text text-anchor="start" x="24.5" y="-1459.2" font-family="Times,serif" font-size="16.00">File: wordcount01</text>
<text text-anchor="start" x="24.5" y="-1441.2" font-family="Times,serif" font-size="16.00">Type: cpu</text>
<text text-anchor="start" x="24.5" y="-1423.2" font-family="Times,serif" font-size="16.00">Time: Mar 10, 2023 at 8:37am (UTC)</text>
<text text-anchor="start" x="24.5" y="-1405.2" font-family="Times,serif" font-size="16.00">Duration: 6.13s, Total samples = 3.78s (61.69%)</text>
<text text-anchor="start" x="24.5" y="-1387.2" font-family="Times,serif" font-size="16.00">Showing nodes accounting for 3.75s, 99.21% of 3.78s total</text>
<text text-anchor="start" x="24.5" y="-1369.2" font-family="Times,serif" font-size="16.00">Dropped 9 nodes (cum &lt;= 0.02s)</text>
<text text-anchor="start" x="24.5" y="-1332.2" font-family="Times,serif" font-size="16.00">See https://git.io/JfYMW for how to read the graph</text>
</a>
</g>
</g>
<!-- N1 -->
<g id="node1" class="node">
<title>N1</title>
<g id="a_node1"><a xlink:title="syscall.Syscall (3.49s)">
<polygon fill="#edd5d5" stroke="#b20400" points="700.5,-421 473.5,-421 473.5,-309 700.5,-309 700.5,-421"/>
<text text-anchor="middle" x="587" y="-397.8" font-family="Times,serif" font-size="24.00">syscall</text>
<text text-anchor="middle" x="587" y="-371.8" font-family="Times,serif" font-size="24.00">Syscall</text>
<text text-anchor="middle" x="587" y="-345.8" font-family="Times,serif" font-size="24.00">3.18s (84.13%)</text>
<text text-anchor="middle" x="587" y="-319.8" font-family="Times,serif" font-size="24.00">of 3.49s (92.33%)</text>
</a>
</g>
</g>
<!-- N5 -->
<g id="node5" class="node">
<title>N5</title>
<g id="a_node5"><a xlink:title="runtime.exitsyscall (0.22s)">
<polygon fill="#edeae6" stroke="#b29c7e" points="641,-258 533,-258 533,-202 641,-202 641,-258"/>
<text text-anchor="middle" x="587" y="-245.2" font-family="Times,serif" font-size="11.00">runtime</text>
<text text-anchor="middle" x="587" y="-233.2" font-family="Times,serif" font-size="11.00">exitsyscall</text>
<text text-anchor="middle" x="587" y="-221.2" font-family="Times,serif" font-size="11.00">0.06s (1.59%)</text>
<text text-anchor="middle" x="587" y="-209.2" font-family="Times,serif" font-size="11.00">of 0.22s (5.82%)</text>
</a>
</g>
</g>
<!-- N1&#45;&gt;N5 -->
<g id="edge10" class="edge">
<title>N1&#45;&gt;N5</title>
<g id="a_edge10"><a xlink:title="syscall.Syscall &#45;&gt; runtime.exitsyscall (0.22s)">
<path fill="none" stroke="#b29c7e" d="M587,-308.75C587,-295.15 587,-280.89 587,-268.36"/>
<polygon fill="#b29c7e" stroke="#b29c7e" points="590.5,-268.29 587,-258.29 583.5,-268.29 590.5,-268.29"/>
</a>
</g>
<g id="a_edge10&#45;label"><a xlink:title="syscall.Syscall &#45;&gt; runtime.exitsyscall (0.22s)">
<text text-anchor="middle" x="609" y="-279.8" font-family="Times,serif" font-size="14.00"> 0.22s</text>
</a>
</g>
</g>
<!-- N21 -->
<g id="node21" class="node">
<title>N21</title>
<g id="a_node21"><a xlink:title="runtime.entersyscall (0.09s)">
<polygon fill="#edecea" stroke="#b2ab9d" points="748.5,-248 659.5,-248 659.5,-212 748.5,-212 748.5,-248"/>
<text text-anchor="middle" x="704" y="-237.1" font-family="Times,serif" font-size="8.00">runtime</text>
<text text-anchor="middle" x="704" y="-228.1" font-family="Times,serif" font-size="8.00">entersyscall</text>
<text text-anchor="middle" x="704" y="-219.1" font-family="Times,serif" font-size="8.00">0 of 0.09s (2.38%)</text>
</a>
</g>
</g>
<!-- N1&#45;&gt;N21 -->
<g id="edge13" class="edge">
<title>N1&#45;&gt;N21</title>
<g id="a_edge13"><a xlink:title="syscall.Syscall &#45;&gt; runtime.entersyscall (0.09s)">
<path fill="none" stroke="#b2ab9d" d="M635.6,-308.75C651.81,-290.32 669.07,-270.71 682.19,-255.79"/>
<polygon fill="#b2ab9d" stroke="#b2ab9d" points="685.05,-257.85 689.02,-248.03 679.79,-253.22 685.05,-257.85"/>
</a>
</g>
<g id="a_edge13&#45;label"><a xlink:title="syscall.Syscall &#45;&gt; runtime.entersyscall (0.09s)">
<text text-anchor="middle" x="684" y="-279.8" font-family="Times,serif" font-size="14.00"> 0.09s</text>
</a>
</g>
</g>
<!-- N2 -->
<g id="node2" class="node">
<title>N2</title>
<g id="a_node2"><a xlink:title="runtime.main (3.77s)">
<polygon fill="#edd5d5" stroke="#b20000" points="634.5,-1417.5 539.5,-1417.5 539.5,-1381.5 634.5,-1381.5 634.5,-1417.5"/>
<text text-anchor="middle" x="587" y="-1406.6" font-family="Times,serif" font-size="8.00">runtime</text>
<text text-anchor="middle" x="587" y="-1397.6" font-family="Times,serif" font-size="8.00">main</text>
<text text-anchor="middle" x="587" y="-1388.6" font-family="Times,serif" font-size="8.00">0 of 3.77s (99.74%)</text>
</a>
</g>
</g>
<!-- N6 -->
<g id="node6" class="node">
<title>N6</title>
<g id="a_node6"><a xlink:title="main.main (3.77s)">
<polygon fill="#edd5d5" stroke="#b20000" points="634.5,-1272 539.5,-1272 539.5,-1236 634.5,-1236 634.5,-1272"/>
<text text-anchor="middle" x="587" y="-1261.1" font-family="Times,serif" font-size="8.00">main</text>
<text text-anchor="middle" x="587" y="-1252.1" font-family="Times,serif" font-size="8.00">main</text>
<text text-anchor="middle" x="587" y="-1243.1" font-family="Times,serif" font-size="8.00">0 of 3.77s (99.74%)</text>
</a>
</g>
</g>
<!-- N2&#45;&gt;N6 -->
<g id="edge1" class="edge">
<title>N2&#45;&gt;N6</title>
<g id="a_edge1"><a xlink:title="runtime.main &#45;&gt; main.main (3.77s)">
<path fill="none" stroke="#b20000" stroke-width="5" d="M587,-1381.48C587,-1356.99 587,-1311.56 587,-1282.33"/>
<polygon fill="#b20000" stroke="#b20000" stroke-width="5" points="591.38,-1282 587,-1272 582.63,-1282 591.38,-1282"/>
</a>
</g>
<g id="a_edge1&#45;label"><a xlink:title="runtime.main &#45;&gt; main.main (3.77s)">
<text text-anchor="middle" x="609" y="-1293.8" font-family="Times,serif" font-size="14.00"> 3.77s</text>
</a>
</g>
</g>
<!-- N3 -->
<g id="node3" class="node">
<title>N3</title>
<g id="a_node3"><a xlink:title="internal/poll.(*FD).Read (3.68s)">
<polygon fill="#edd5d5" stroke="#b20100" points="636.5,-878 537.5,-878 537.5,-820 636.5,-820 636.5,-878"/>
<text text-anchor="middle" x="587" y="-866.8" font-family="Times,serif" font-size="9.00">poll</text>
<text text-anchor="middle" x="587" y="-856.8" font-family="Times,serif" font-size="9.00">(*FD)</text>
<text text-anchor="middle" x="587" y="-846.8" font-family="Times,serif" font-size="9.00">Read</text>
<text text-anchor="middle" x="587" y="-836.8" font-family="Times,serif" font-size="9.00">0.01s (0.26%)</text>
<text text-anchor="middle" x="587" y="-826.8" font-family="Times,serif" font-size="9.00">of 3.68s (97.35%)</text>
</a>
</g>
</g>
<!-- N4 -->
<g id="node4" class="node">
<title>N4</title>
<g id="a_node4"><a xlink:title="runtime.asyncPreempt (0.23s)">
<polygon fill="#edeae5" stroke="#b29b7c" points="881,-390 771,-390 771,-340 881,-340 881,-390"/>
<text text-anchor="middle" x="826" y="-375.6" font-family="Times,serif" font-size="13.00">runtime</text>
<text text-anchor="middle" x="826" y="-361.6" font-family="Times,serif" font-size="13.00">asyncPreempt</text>
<text text-anchor="middle" x="826" y="-347.6" font-family="Times,serif" font-size="13.00">0.23s (6.08%)</text>
</a>
</g>
</g>
<!-- N3&#45;&gt;N4 -->
<g id="edge23" class="edge">
<title>N3&#45;&gt;N4</title>
<g id="a_edge23"><a xlink:title="internal/poll.(*FD).Read &#45;&gt; runtime.asyncPreempt (0.02s)">
<path fill="none" stroke="#b2b1ad" d="M629.44,-819.75C635.56,-814.38 641.34,-808.41 646,-802 665.17,-775.61 671,-765.62 671,-733 671,-733 671,-733 671,-554.5 671,-485.9 733.01,-428.66 778.59,-395.87"/>
<polygon fill="#b2b1ad" stroke="#b2b1ad" points="780.72,-398.64 786.89,-390.03 776.69,-392.92 780.72,-398.64"/>
</a>
</g>
<g id="a_edge23&#45;label"><a xlink:title="internal/poll.(*FD).Read &#45;&gt; runtime.asyncPreempt (0.02s)">
<text text-anchor="middle" x="693" y="-608.8" font-family="Times,serif" font-size="14.00"> 0.02s</text>
</a>
</g>
</g>
<!-- N17 -->
<g id="node17" class="node">
<title>N17</title>
<g id="a_node17"><a xlink:title="internal/poll.(*FD).readUnlock (0.07s)">
<polygon fill="#edecea" stroke="#b2ada1" points="822.5,-634.5 733.5,-634.5 733.5,-590.5 822.5,-590.5 822.5,-634.5"/>
<text text-anchor="middle" x="778" y="-624.1" font-family="Times,serif" font-size="8.00">poll</text>
<text text-anchor="middle" x="778" y="-615.1" font-family="Times,serif" font-size="8.00">(*FD)</text>
<text text-anchor="middle" x="778" y="-606.1" font-family="Times,serif" font-size="8.00">readUnlock</text>
<text text-anchor="middle" x="778" y="-597.1" font-family="Times,serif" font-size="8.00">0 of 0.07s (1.85%)</text>
</a>
</g>
</g>
<!-- N3&#45;&gt;N17 -->
<g id="edge15" class="edge">
<title>N3&#45;&gt;N17</title>
<g id="a_edge15"><a xlink:title="internal/poll.(*FD).Read &#45;&gt; internal/poll.(*FD).readUnlock (0.07s)">
<path fill="none" stroke="#b2ada1" d="M636.62,-832.34C653.51,-825.16 671.51,-815.23 685,-802 730.75,-757.13 757.5,-685.11 769.78,-644.31"/>
<polygon fill="#b2ada1" stroke="#b2ada1" points="773.16,-645.23 772.6,-634.65 766.44,-643.27 773.16,-645.23"/>
</a>
</g>
<g id="a_edge15&#45;label"><a xlink:title="internal/poll.(*FD).Read &#45;&gt; internal/poll.(*FD).readUnlock (0.07s)">
<text text-anchor="middle" x="767" y="-728.3" font-family="Times,serif" font-size="14.00"> 0.07s</text>
</a>
</g>
</g>
<!-- N19 -->
<g id="node19" class="node">
<title>N19</title>
<g id="a_node19"><a xlink:title="internal/poll.(*FD).readLock (0.07s)">
<polygon fill="#edecea" stroke="#b2ada1" points="900.5,-754 811.5,-754 811.5,-710 900.5,-710 900.5,-754"/>
<text text-anchor="middle" x="856" y="-743.6" font-family="Times,serif" font-size="8.00">poll</text>
<text text-anchor="middle" x="856" y="-734.6" font-family="Times,serif" font-size="8.00">(*FD)</text>
<text text-anchor="middle" x="856" y="-725.6" font-family="Times,serif" font-size="8.00">readLock</text>
<text text-anchor="middle" x="856" y="-716.6" font-family="Times,serif" font-size="8.00">0 of 0.07s (1.85%)</text>
</a>
</g>
</g>
<!-- N3&#45;&gt;N19 -->
<g id="edge14" class="edge">
<title>N3&#45;&gt;N19</title>
<g id="a_edge14"><a xlink:title="internal/poll.(*FD).Read &#45;&gt; internal/poll.(*FD).readLock (0.07s)">
<path fill="none" stroke="#b2ada1" d="M636.67,-836.72C667.66,-828.84 707.99,-817.04 742,-802 768.22,-790.4 795.77,-773.87 817.22,-759.89"/>
<polygon fill="#b2ada1" stroke="#b2ada1" points="819.3,-762.71 825.71,-754.28 815.44,-756.87 819.3,-762.71"/>
</a>
</g>
<g id="a_edge14&#45;label"><a xlink:title="internal/poll.(*FD).Read &#45;&gt; internal/poll.(*FD).readLock (0.07s)">
<text text-anchor="middle" x="823.5" y="-790.8" font-family="Times,serif" font-size="14.00"> 0.07s</text>
<text text-anchor="middle" x="823.5" y="-775.8" font-family="Times,serif" font-size="14.00"> (inline)</text>
</a>
</g>
</g>
<!-- N20 -->
<g id="node20" class="node">
<title>N20</title>
<g id="a_node20"><a xlink:title="internal/poll.ignoringEINTRIO (3.51s)">
<polygon fill="#edd5d5" stroke="#b20300" points="634.5,-750 539.5,-750 539.5,-714 634.5,-714 634.5,-750"/>
<text text-anchor="middle" x="587" y="-739.1" font-family="Times,serif" font-size="8.00">poll</text>
<text text-anchor="middle" x="587" y="-730.1" font-family="Times,serif" font-size="8.00">ignoringEINTRIO</text>
<text text-anchor="middle" x="587" y="-721.1" font-family="Times,serif" font-size="8.00">0 of 3.51s (92.86%)</text>
</a>
</g>
</g>
<!-- N3&#45;&gt;N20 -->
<g id="edge6" class="edge">
<title>N3&#45;&gt;N20</title>
<g id="a_edge6"><a xlink:title="internal/poll.(*FD).Read &#45;&gt; internal/poll.ignoringEINTRIO (3.51s)">
<path fill="none" stroke="#b20300" stroke-width="5" d="M587,-819.87C587,-801.72 587,-778.24 587,-760.27"/>
<polygon fill="#b20300" stroke="#b20300" stroke-width="5" points="591.38,-760.14 587,-750.14 582.63,-760.14 591.38,-760.14"/>
</a>
</g>
<g id="a_edge6&#45;label"><a xlink:title="internal/poll.(*FD).Read &#45;&gt; internal/poll.ignoringEINTRIO (3.51s)">
<text text-anchor="middle" x="614.5" y="-790.8" font-family="Times,serif" font-size="14.00"> 3.51s</text>
<text text-anchor="middle" x="614.5" y="-775.8" font-family="Times,serif" font-size="14.00"> (inline)</text>
</a>
</g>
</g>
<!-- N7 -->
<g id="node7" class="node">
<title>N7</title>
<g id="a_node7"><a xlink:title="runtime.casgstatus (0.07s)">
<polygon fill="#edecea" stroke="#b2ada1" points="651,-44 557,-44 557,0 651,0 651,-44"/>
<text text-anchor="middle" x="604" y="-31.2" font-family="Times,serif" font-size="11.00">runtime</text>
<text text-anchor="middle" x="604" y="-19.2" font-family="Times,serif" font-size="11.00">casgstatus</text>
<text text-anchor="middle" x="604" y="-7.2" font-family="Times,serif" font-size="11.00">0.07s (1.85%)</text>
</a>
</g>
</g>
<!-- N5&#45;&gt;N7 -->
<g id="edge20" class="edge">
<title>N5&#45;&gt;N7</title>
<g id="a_edge20"><a xlink:title="runtime.exitsyscall &#45;&gt; runtime.casgstatus (0.05s)">
<path fill="none" stroke="#b2afa6" d="M588.85,-201.78C590.74,-174.7 593.82,-131.96 597,-95 598.15,-81.61 599.56,-66.83 600.82,-54.16"/>
<polygon fill="#b2afa6" stroke="#b2afa6" points="604.31,-54.4 601.82,-44.1 597.35,-53.7 604.31,-54.4"/>
</a>
</g>
<g id="a_edge20&#45;label"><a xlink:title="runtime.exitsyscall &#45;&gt; runtime.casgstatus (0.05s)">
<text text-anchor="middle" x="619" y="-119.3" font-family="Times,serif" font-size="14.00"> 0.05s</text>
</a>
</g>
</g>
<!-- N12 -->
<g id="node12" class="node">
<title>N12</title>
<g id="a_node12"><a xlink:title="runtime.exitsyscallfast (0.11s)">
<polygon fill="#edebe9" stroke="#b2a998" points="552,-151 444,-151 444,-95 552,-95 552,-151"/>
<text text-anchor="middle" x="498" y="-138.2" font-family="Times,serif" font-size="11.00">runtime</text>
<text text-anchor="middle" x="498" y="-126.2" font-family="Times,serif" font-size="11.00">exitsyscallfast</text>
<text text-anchor="middle" x="498" y="-114.2" font-family="Times,serif" font-size="11.00">0.05s (1.32%)</text>
<text text-anchor="middle" x="498" y="-102.2" font-family="Times,serif" font-size="11.00">of 0.11s (2.91%)</text>
</a>
</g>
</g>
<!-- N5&#45;&gt;N12 -->
<g id="edge11" class="edge">
<title>N5&#45;&gt;N12</title>
<g id="a_edge11"><a xlink:title="runtime.exitsyscall &#45;&gt; runtime.exitsyscallfast (0.11s)">
<path fill="none" stroke="#b2a998" d="M548.23,-201.98C541.71,-196.47 535.34,-190.38 530,-184 524.06,-176.89 518.75,-168.5 514.25,-160.29"/>
<polygon fill="#b2a998" stroke="#b2a998" points="517.23,-158.43 509.52,-151.17 511.02,-161.65 517.23,-158.43"/>
</a>
</g>
<g id="a_edge11&#45;label"><a xlink:title="runtime.exitsyscall &#45;&gt; runtime.exitsyscallfast (0.11s)">
<text text-anchor="middle" x="552" y="-172.8" font-family="Times,serif" font-size="14.00"> 0.11s</text>
</a>
</g>
</g>
<!-- N6&#45;&gt;N4 -->
<g id="edge22" class="edge">
<title>N6&#45;&gt;N4</title>
<g id="a_edge22"><a xlink:title="main.main ... runtime.asyncPreempt (0.03s)">
<path fill="none" stroke="#b2b0ab" stroke-dasharray="1,5" d="M634.53,-1253.31C757.75,-1252.83 1078,-1242.93 1078,-1153 1078,-1153 1078,-1153 1078,-500 1078,-415.53 966.24,-384.13 891.58,-372.59"/>
<polygon fill="#b2b0ab" stroke="#b2b0ab" points="891.7,-369.07 881.3,-371.09 890.69,-376 891.7,-369.07"/>
</a>
</g>
<g id="a_edge22&#45;label"><a xlink:title="main.main ... runtime.asyncPreempt (0.03s)">
<text text-anchor="middle" x="1100" y="-845.3" font-family="Times,serif" font-size="14.00"> 0.03s</text>
</a>
</g>
</g>
<!-- N14 -->
<g id="node14" class="node">
<title>N14</title>
<g id="a_node14"><a xlink:title="main.readbyte (3.73s)">
<polygon fill="#edd5d5" stroke="#b20000" points="634.5,-1170 539.5,-1170 539.5,-1134 634.5,-1134 634.5,-1170"/>
<text text-anchor="middle" x="587" y="-1159.1" font-family="Times,serif" font-size="8.00">main</text>
<text text-anchor="middle" x="587" y="-1150.1" font-family="Times,serif" font-size="8.00">readbyte</text>
<text text-anchor="middle" x="587" y="-1141.1" font-family="Times,serif" font-size="8.00">0 of 3.73s (98.68%)</text>
</a>
</g>
</g>
<!-- N6&#45;&gt;N14 -->
<g id="edge2" class="edge">
<title>N6&#45;&gt;N14</title>
<g id="a_edge2"><a xlink:title="main.main &#45;&gt; main.readbyte (3.73s)">
<path fill="none" stroke="#b20000" stroke-width="5" d="M587,-1235.58C587,-1220.38 587,-1198.07 587,-1180.46"/>
<polygon fill="#b20000" stroke="#b20000" stroke-width="5" points="591.38,-1180.22 587,-1170.22 582.63,-1180.22 591.38,-1180.22"/>
</a>
</g>
<g id="a_edge2&#45;label"><a xlink:title="main.main &#45;&gt; main.readbyte (3.73s)">
<text text-anchor="middle" x="614.5" y="-1206.8" font-family="Times,serif" font-size="14.00"> 3.73s</text>
<text text-anchor="middle" x="614.5" y="-1191.8" font-family="Times,serif" font-size="14.00"> (inline)</text>
</a>
</g>
</g>
<!-- N8 -->
<g id="node8" class="node">
<title>N8</title>
<g id="a_node8"><a xlink:title="os.(*File).Read (3.72s)">
<polygon fill="#edd5d5" stroke="#b20000" points="634.5,-1083 539.5,-1083 539.5,-1039 634.5,-1039 634.5,-1083"/>
<text text-anchor="middle" x="587" y="-1072.6" font-family="Times,serif" font-size="8.00">os</text>
<text text-anchor="middle" x="587" y="-1063.6" font-family="Times,serif" font-size="8.00">(*File)</text>
<text text-anchor="middle" x="587" y="-1054.6" font-family="Times,serif" font-size="8.00">Read</text>
<text text-anchor="middle" x="587" y="-1045.6" font-family="Times,serif" font-size="8.00">0 of 3.72s (98.41%)</text>
</a>
</g>
</g>
<!-- N8&#45;&gt;N4 -->
<g id="edge24" class="edge">
<title>N8&#45;&gt;N4</title>
<g id="a_edge24"><a xlink:title="os.(*File).Read ... runtime.asyncPreempt (0.02s)">
<path fill="none" stroke="#b2b1ad" stroke-dasharray="1,5" d="M634.81,-1055.75C732.73,-1045.73 947,-1016.44 947,-952 947,-952 947,-952 947,-786 947,-646.42 1001.67,-597.7 941,-472 926.05,-441.02 897.73,-414.75 872.94,-396.11"/>
<polygon fill="#b2b1ad" stroke="#b2b1ad" points="874.84,-393.15 864.7,-390.08 870.71,-398.81 874.84,-393.15"/>
</a>
</g>
<g id="a_edge24&#45;label"><a xlink:title="os.(*File).Read ... runtime.asyncPreempt (0.02s)">
<text text-anchor="middle" x="974" y="-728.3" font-family="Times,serif" font-size="14.00"> 0.02s</text>
</a>
</g>
</g>
<!-- N9 -->
<g id="node9" class="node">
<title>N9</title>
<g id="a_node9"><a xlink:title="os.(*File).read (3.70s)">
<polygon fill="#edd5d5" stroke="#b20100" points="634.5,-973 539.5,-973 539.5,-929 634.5,-929 634.5,-973"/>
<text text-anchor="middle" x="587" y="-962.6" font-family="Times,serif" font-size="8.00">os</text>
<text text-anchor="middle" x="587" y="-953.6" font-family="Times,serif" font-size="8.00">(*File)</text>
<text text-anchor="middle" x="587" y="-944.6" font-family="Times,serif" font-size="8.00">read</text>
<text text-anchor="middle" x="587" y="-935.6" font-family="Times,serif" font-size="8.00">0 of 3.70s (97.88%)</text>
</a>
</g>
</g>
<!-- N8&#45;&gt;N9 -->
<g id="edge4" class="edge">
<title>N8&#45;&gt;N9</title>
<g id="a_edge4"><a xlink:title="os.(*File).Read &#45;&gt; os.(*File).read (3.70s)">
<path fill="none" stroke="#b20100" stroke-width="5" d="M587,-1038.92C587,-1023.09 587,-1001.15 587,-983.27"/>
<polygon fill="#b20100" stroke="#b20100" stroke-width="5" points="591.38,-983.03 587,-973.03 582.63,-983.03 591.38,-983.03"/>
</a>
</g>
<g id="a_edge4&#45;label"><a xlink:title="os.(*File).Read &#45;&gt; os.(*File).read (3.70s)">
<text text-anchor="middle" x="614.5" y="-1009.8" font-family="Times,serif" font-size="14.00"> 3.70s</text>
<text text-anchor="middle" x="614.5" y="-994.8" font-family="Times,serif" font-size="14.00"> (inline)</text>
</a>
</g>
</g>
<!-- N9&#45;&gt;N3 -->
<g id="edge5" class="edge">
<title>N9&#45;&gt;N3</title>
<g id="a_edge5"><a xlink:title="os.(*File).read &#45;&gt; internal/poll.(*FD).Read (3.68s)">
<path fill="none" stroke="#b20100" stroke-width="5" d="M587,-928.79C587,-917.01 587,-901.98 587,-888.22"/>
<polygon fill="#b20100" stroke="#b20100" stroke-width="5" points="591.38,-888.01 587,-878.01 582.63,-888.01 591.38,-888.01"/>
</a>
</g>
<g id="a_edge5&#45;label"><a xlink:title="os.(*File).read &#45;&gt; internal/poll.(*FD).Read (3.68s)">
<text text-anchor="middle" x="609" y="-899.8" font-family="Times,serif" font-size="14.00"> 3.68s</text>
</a>
</g>
</g>
<!-- N9&#45;&gt;N4 -->
<g id="edge25" class="edge">
<title>N9&#45;&gt;N4</title>
<g id="a_edge25"><a xlink:title="os.(*File).read &#45;&gt; runtime.asyncPreempt (0.02s)">
<path fill="none" stroke="#b2b1ad" d="M556.62,-928.65C534.72,-910.53 509,-882.37 509,-850 509,-850 509,-850 509,-500 509,-404.01 618.07,-448.61 710,-421 731.74,-414.47 754.55,-404.43 774.13,-394.7"/>
<polygon fill="#b2b1ad" stroke="#b2b1ad" points="775.84,-397.76 783.18,-390.12 772.67,-391.52 775.84,-397.76"/>
</a>
</g>
<g id="a_edge25&#45;label"><a xlink:title="os.(*File).read &#45;&gt; runtime.asyncPreempt (0.02s)">
<text text-anchor="middle" x="531" y="-673.3" font-family="Times,serif" font-size="14.00"> 0.02s</text>
</a>
</g>
</g>
<!-- N10 -->
<g id="node10" class="node">
<title>N10</title>
<g id="a_node10"><a xlink:title="runtime.reentersyscall (0.09s)">
<polygon fill="#edecea" stroke="#b2ab9d" points="758,-151 650,-151 650,-95 758,-95 758,-151"/>
<text text-anchor="middle" x="704" y="-138.2" font-family="Times,serif" font-size="11.00">runtime</text>
<text text-anchor="middle" x="704" y="-126.2" font-family="Times,serif" font-size="11.00">reentersyscall</text>
<text text-anchor="middle" x="704" y="-114.2" font-family="Times,serif" font-size="11.00">0.05s (1.32%)</text>
<text text-anchor="middle" x="704" y="-102.2" font-family="Times,serif" font-size="11.00">of 0.09s (2.38%)</text>
</a>
</g>
</g>
<!-- N10&#45;&gt;N7 -->
<g id="edge26" class="edge">
<title>N10&#45;&gt;N7</title>
<g id="a_edge26"><a xlink:title="runtime.reentersyscall &#45;&gt; runtime.casgstatus (0.02s)">
<path fill="none" stroke="#b2b1ad" d="M676.67,-94.95C663.01,-81.42 646.49,-65.06 632.65,-51.36"/>
<polygon fill="#b2b1ad" stroke="#b2b1ad" points="634.84,-48.6 625.27,-44.06 629.91,-53.58 634.84,-48.6"/>
</a>
</g>
<g id="a_edge26&#45;label"><a xlink:title="runtime.reentersyscall &#45;&gt; runtime.casgstatus (0.02s)">
<text text-anchor="middle" x="678" y="-65.8" font-family="Times,serif" font-size="14.00"> 0.02s</text>
</a>
</g>
</g>
<!-- N18 -->
<g id="node18" class="node">
<title>N18</title>
<g id="a_node18"><a xlink:title="runtime.save (0.02s)">
<polygon fill="#ededec" stroke="#b2b1ad" points="753,-42.5 669,-42.5 669,-1.5 753,-1.5 753,-42.5"/>
<text text-anchor="middle" x="711" y="-30.5" font-family="Times,serif" font-size="10.00">runtime</text>
<text text-anchor="middle" x="711" y="-19.5" font-family="Times,serif" font-size="10.00">save</text>
<text text-anchor="middle" x="711" y="-8.5" font-family="Times,serif" font-size="10.00">0.02s (0.53%)</text>
</a>
</g>
</g>
<!-- N10&#45;&gt;N18 -->
<g id="edge27" class="edge">
<title>N10&#45;&gt;N18</title>
<g id="a_edge27"><a xlink:title="runtime.reentersyscall &#45;&gt; runtime.save (0.02s)">
<path fill="none" stroke="#b2b1ad" d="M705.91,-94.95C706.83,-81.94 707.94,-66.3 708.88,-52.94"/>
<polygon fill="#b2b1ad" stroke="#b2b1ad" points="712.39,-53.02 709.6,-42.8 705.4,-52.52 712.39,-53.02"/>
</a>
</g>
<g id="a_edge27&#45;label"><a xlink:title="runtime.reentersyscall &#45;&gt; runtime.save (0.02s)">
<text text-anchor="middle" x="730" y="-65.8" font-family="Times,serif" font-size="14.00"> 0.02s</text>
</a>
</g>
</g>
<!-- N11 -->
<g id="node11" class="node">
<title>N11</title>
<g id="a_node11"><a xlink:title="syscall.read (3.51s)">
<polygon fill="#edd5d5" stroke="#b20300" points="634.5,-519 539.5,-519 539.5,-483 634.5,-483 634.5,-519"/>
<text text-anchor="middle" x="587" y="-508.1" font-family="Times,serif" font-size="8.00">syscall</text>
<text text-anchor="middle" x="587" y="-499.1" font-family="Times,serif" font-size="8.00">read</text>
<text text-anchor="middle" x="587" y="-490.1" font-family="Times,serif" font-size="8.00">0 of 3.51s (92.86%)</text>
</a>
</g>
</g>
<!-- N11&#45;&gt;N1 -->
<g id="edge9" class="edge">
<title>N11&#45;&gt;N1</title>
<g id="a_edge9"><a xlink:title="syscall.read &#45;&gt; syscall.Syscall (3.49s)">
<path fill="none" stroke="#b20400" stroke-width="5" d="M587,-482.76C587,-469.51 587,-450.33 587,-431.33"/>
<polygon fill="#b20400" stroke="#b20400" stroke-width="5" points="591.38,-431.14 587,-421.14 582.63,-431.14 591.38,-431.14"/>
</a>
</g>
<g id="a_edge9&#45;label"><a xlink:title="syscall.read &#45;&gt; syscall.Syscall (3.49s)">
<text text-anchor="middle" x="609" y="-442.8" font-family="Times,serif" font-size="14.00"> 3.49s</text>
</a>
</g>
</g>
<!-- N11&#45;&gt;N4 -->
<g id="edge28" class="edge">
<title>N11&#45;&gt;N4</title>
<g id="a_edge28"><a xlink:title="syscall.read &#45;&gt; runtime.asyncPreempt (0.02s)">
<path fill="none" stroke="#b2b1ad" d="M602.24,-482.86C615.12,-469.29 634.67,-450.74 655,-439 677.27,-426.14 686.11,-430.53 710,-421 729.66,-413.16 750.69,-403.57 769.38,-394.6"/>
<polygon fill="#b2b1ad" stroke="#b2b1ad" points="771.15,-397.63 778.63,-390.13 768.1,-391.33 771.15,-397.63"/>
</a>
</g>
<g id="a_edge28&#45;label"><a xlink:title="syscall.read &#45;&gt; runtime.asyncPreempt (0.02s)">
<text text-anchor="middle" x="677" y="-442.8" font-family="Times,serif" font-size="14.00"> 0.02s</text>
</a>
</g>
</g>
<!-- N13 -->
<g id="node13" class="node">
<title>N13</title>
<g id="a_node13"><a xlink:title="runtime.wirep (0.05s)">
<polygon fill="#edeceb" stroke="#b2afa6" points="539,-44 445,-44 445,0 539,0 539,-44"/>
<text text-anchor="middle" x="492" y="-31.2" font-family="Times,serif" font-size="11.00">runtime</text>
<text text-anchor="middle" x="492" y="-19.2" font-family="Times,serif" font-size="11.00">wirep</text>
<text text-anchor="middle" x="492" y="-7.2" font-family="Times,serif" font-size="11.00">0.05s (1.32%)</text>
</a>
</g>
</g>
<!-- N12&#45;&gt;N13 -->
<g id="edge21" class="edge">
<title>N12&#45;&gt;N13</title>
<g id="a_edge21"><a xlink:title="runtime.exitsyscallfast &#45;&gt; runtime.wirep (0.05s)">
<path fill="none" stroke="#b2afa6" d="M496.36,-94.95C495.59,-82.3 494.68,-67.17 493.88,-54.06"/>
<polygon fill="#b2afa6" stroke="#b2afa6" points="497.37,-53.83 493.28,-44.06 490.39,-54.25 497.37,-53.83"/>
</a>
</g>
<g id="a_edge21&#45;label"><a xlink:title="runtime.exitsyscallfast &#45;&gt; runtime.wirep (0.05s)">
<text text-anchor="middle" x="518" y="-65.8" font-family="Times,serif" font-size="14.00"> 0.05s</text>
</a>
</g>
</g>
<!-- N14&#45;&gt;N4 -->
<g id="edge30" class="edge">
<title>N14&#45;&gt;N4</title>
<g id="a_edge30"><a xlink:title="main.readbyte &#45;&gt; runtime.asyncPreempt (0.01s)">
<path fill="none" stroke="#b2b2b0" d="M634.88,-1151.13C747.36,-1150.15 1019,-1139.72 1019,-1062 1019,-1062 1019,-1062 1019,-500 1019,-436.09 946.7,-400.21 890.6,-382"/>
<polygon fill="#b2b2b0" stroke="#b2b2b0" points="891.64,-378.65 881.05,-379.01 889.55,-385.33 891.64,-378.65"/>
</a>
</g>
<g id="a_edge30&#45;label"><a xlink:title="main.readbyte &#45;&gt; runtime.asyncPreempt (0.01s)">
<text text-anchor="middle" x="1041" y="-783.3" font-family="Times,serif" font-size="14.00"> 0.01s</text>
</a>
</g>
</g>
<!-- N14&#45;&gt;N8 -->
<g id="edge3" class="edge">
<title>N14&#45;&gt;N8</title>
<g id="a_edge3"><a xlink:title="main.readbyte &#45;&gt; os.(*File).Read (3.72s)">
<path fill="none" stroke="#b20000" stroke-width="5" d="M587,-1133.84C587,-1122.44 587,-1107.13 587,-1093.58"/>
<polygon fill="#b20000" stroke="#b20000" stroke-width="5" points="591.38,-1093.19 587,-1083.19 582.63,-1093.19 591.38,-1093.19"/>
</a>
</g>
<g id="a_edge3&#45;label"><a xlink:title="main.readbyte &#45;&gt; os.(*File).Read (3.72s)">
<text text-anchor="middle" x="609" y="-1104.8" font-family="Times,serif" font-size="14.00"> 3.72s</text>
</a>
</g>
</g>
<!-- N15 -->
<g id="node15" class="node">
<title>N15</title>
<g id="a_node15"><a xlink:title="internal/poll.(*fdMutex).rwlock (0.07s)">
<polygon fill="#edecea" stroke="#b2ada1" points="939.5,-644 842.5,-644 842.5,-581 939.5,-581 939.5,-644"/>
<text text-anchor="middle" x="891" y="-632" font-family="Times,serif" font-size="10.00">poll</text>
<text text-anchor="middle" x="891" y="-621" font-family="Times,serif" font-size="10.00">(*fdMutex)</text>
<text text-anchor="middle" x="891" y="-610" font-family="Times,serif" font-size="10.00">rwlock</text>
<text text-anchor="middle" x="891" y="-599" font-family="Times,serif" font-size="10.00">0.02s (0.53%)</text>
<text text-anchor="middle" x="891" y="-588" font-family="Times,serif" font-size="10.00">of 0.07s (1.85%)</text>
</a>
</g>
</g>
<!-- N15&#45;&gt;N4 -->
<g id="edge18" class="edge">
<title>N15&#45;&gt;N4</title>
<g id="a_edge18"><a xlink:title="internal/poll.(*fdMutex).rwlock &#45;&gt; runtime.asyncPreempt (0.05s)">
<path fill="none" stroke="#b2afa6" d="M893.49,-580.8C895.17,-545.17 894.14,-485.37 874,-439 867.92,-425.01 859.21,-410.74 850.87,-398.57"/>
<polygon fill="#b2afa6" stroke="#b2afa6" points="853.53,-396.28 844.91,-390.12 847.81,-400.31 853.53,-396.28"/>
</a>
</g>
<g id="a_edge18&#45;label"><a xlink:title="internal/poll.(*fdMutex).rwlock &#45;&gt; runtime.asyncPreempt (0.05s)">
<text text-anchor="middle" x="915" y="-497.3" font-family="Times,serif" font-size="14.00"> 0.05s</text>
</a>
</g>
</g>
<!-- N16 -->
<g id="node16" class="node">
<title>N16</title>
<g id="a_node16"><a xlink:title="internal/poll.(*fdMutex).rwunlock (0.06s)">
<polygon fill="#edeceb" stroke="#b2aea4" points="872.5,-530 779.5,-530 779.5,-472 872.5,-472 872.5,-530"/>
<text text-anchor="middle" x="826" y="-518.8" font-family="Times,serif" font-size="9.00">poll</text>
<text text-anchor="middle" x="826" y="-508.8" font-family="Times,serif" font-size="9.00">(*fdMutex)</text>
<text text-anchor="middle" x="826" y="-498.8" font-family="Times,serif" font-size="9.00">rwunlock</text>
<text text-anchor="middle" x="826" y="-488.8" font-family="Times,serif" font-size="9.00">0.01s (0.26%)</text>
<text text-anchor="middle" x="826" y="-478.8" font-family="Times,serif" font-size="9.00">of 0.06s (1.59%)</text>
</a>
</g>
</g>
<!-- N16&#45;&gt;N4 -->
<g id="edge19" class="edge">
<title>N16&#45;&gt;N4</title>
<g id="a_edge19"><a xlink:title="internal/poll.(*fdMutex).rwunlock &#45;&gt; runtime.asyncPreempt (0.05s)">
<path fill="none" stroke="#b2afa6" d="M826,-471.91C826,-450.97 826,-422.28 826,-400.04"/>
<polygon fill="#b2afa6" stroke="#b2afa6" points="829.5,-400.02 826,-390.02 822.5,-400.02 829.5,-400.02"/>
</a>
</g>
<g id="a_edge19&#45;label"><a xlink:title="internal/poll.(*fdMutex).rwunlock &#45;&gt; runtime.asyncPreempt (0.05s)">
<text text-anchor="middle" x="848" y="-442.8" font-family="Times,serif" font-size="14.00"> 0.05s</text>
</a>
</g>
</g>
<!-- N17&#45;&gt;N4 -->
<g id="edge29" class="edge">
<title>N17&#45;&gt;N4</title>
<g id="a_edge29"><a xlink:title="internal/poll.(*FD).readUnlock &#45;&gt; runtime.asyncPreempt (0.01s)">
<path fill="none" stroke="#b2b2b0" d="M760.05,-590.3C748.1,-574.73 733.45,-552.46 727,-530 719.89,-505.22 717.54,-495.98 727,-472 738.77,-442.17 763.33,-415.78 785.04,-396.8"/>
<polygon fill="#b2b2b0" stroke="#b2b2b0" points="787.52,-399.28 792.88,-390.15 782.99,-393.95 787.52,-399.28"/>
</a>
</g>
<g id="a_edge29&#45;label"><a xlink:title="internal/poll.(*FD).readUnlock &#45;&gt; runtime.asyncPreempt (0.01s)">
<text text-anchor="middle" x="749" y="-497.3" font-family="Times,serif" font-size="14.00"> 0.01s</text>
</a>
</g>
</g>
<!-- N17&#45;&gt;N16 -->
<g id="edge17" class="edge">
<title>N17&#45;&gt;N16</title>
<g id="a_edge17"><a xlink:title="internal/poll.(*FD).readUnlock &#45;&gt; internal/poll.(*fdMutex).rwunlock (0.06s)">
<path fill="none" stroke="#b2aea4" d="M787.25,-590.39C793.6,-575.91 802.19,-556.32 809.67,-539.26"/>
<polygon fill="#b2aea4" stroke="#b2aea4" points="812.88,-540.66 813.69,-530.09 806.47,-537.85 812.88,-540.66"/>
</a>
</g>
<g id="a_edge17&#45;label"><a xlink:title="internal/poll.(*FD).readUnlock &#45;&gt; internal/poll.(*fdMutex).rwunlock (0.06s)">
<text text-anchor="middle" x="826" y="-551.8" font-family="Times,serif" font-size="14.00"> 0.06s</text>
</a>
</g>
</g>
<!-- N19&#45;&gt;N15 -->
<g id="edge16" class="edge">
<title>N19&#45;&gt;N15</title>
<g id="a_edge16"><a xlink:title="internal/poll.(*FD).readLock &#45;&gt; internal/poll.(*fdMutex).rwlock (0.07s)">
<path fill="none" stroke="#b2ada1" d="M862.26,-709.99C866.91,-694.37 873.41,-672.56 879.05,-653.63"/>
<polygon fill="#b2ada1" stroke="#b2ada1" points="882.4,-654.63 881.9,-644.04 875.69,-652.63 882.4,-654.63"/>
</a>
</g>
<g id="a_edge16&#45;label"><a xlink:title="internal/poll.(*FD).readLock &#45;&gt; internal/poll.(*fdMutex).rwlock (0.07s)">
<text text-anchor="middle" x="897" y="-673.3" font-family="Times,serif" font-size="14.00"> 0.07s</text>
</a>
</g>
</g>
<!-- N22 -->
<g id="node22" class="node">
<title>N22</title>
<g id="a_node22"><a xlink:title="syscall.Read (3.51s)">
<polygon fill="#edd5d5" stroke="#b20300" points="634.5,-630.5 539.5,-630.5 539.5,-594.5 634.5,-594.5 634.5,-630.5"/>
<text text-anchor="middle" x="587" y="-619.6" font-family="Times,serif" font-size="8.00">syscall</text>
<text text-anchor="middle" x="587" y="-610.6" font-family="Times,serif" font-size="8.00">Read</text>
<text text-anchor="middle" x="587" y="-601.6" font-family="Times,serif" font-size="8.00">0 of 3.51s (92.86%)</text>
</a>
</g>
</g>
<!-- N20&#45;&gt;N22 -->
<g id="edge7" class="edge">
<title>N20&#45;&gt;N22</title>
<g id="a_edge7"><a xlink:title="internal/poll.ignoringEINTRIO &#45;&gt; syscall.Read (3.51s)">
<path fill="none" stroke="#b20300" stroke-width="5" d="M587,-713.91C587,-694.77 587,-663.46 587,-640.89"/>
<polygon fill="#b20300" stroke="#b20300" stroke-width="5" points="591.38,-640.61 587,-630.61 582.63,-640.61 591.38,-640.61"/>
</a>
</g>
<g id="a_edge7&#45;label"><a xlink:title="internal/poll.ignoringEINTRIO &#45;&gt; syscall.Read (3.51s)">
<text text-anchor="middle" x="614.5" y="-680.8" font-family="Times,serif" font-size="14.00"> 3.51s</text>
<text text-anchor="middle" x="614.5" y="-665.8" font-family="Times,serif" font-size="14.00"> (inline)</text>
</a>
</g>
</g>
<!-- N21&#45;&gt;N10 -->
<g id="edge12" class="edge">
<title>N21&#45;&gt;N10</title>
<g id="a_edge12"><a xlink:title="runtime.entersyscall &#45;&gt; runtime.reentersyscall (0.09s)">
<path fill="none" stroke="#b2ab9d" d="M704,-211.66C704,-198.06 704,-178.63 704,-161.51"/>
<polygon fill="#b2ab9d" stroke="#b2ab9d" points="707.5,-161.23 704,-151.23 700.5,-161.23 707.5,-161.23"/>
</a>
</g>
<g id="a_edge12&#45;label"><a xlink:title="runtime.entersyscall &#45;&gt; runtime.reentersyscall (0.09s)">
<text text-anchor="middle" x="726" y="-172.8" font-family="Times,serif" font-size="14.00"> 0.09s</text>
</a>
</g>
</g>
<!-- N22&#45;&gt;N11 -->
<g id="edge8" class="edge">
<title>N22&#45;&gt;N11</title>
<g id="a_edge8"><a xlink:title="syscall.Read &#45;&gt; syscall.read (3.51s)">
<path fill="none" stroke="#b20300" stroke-width="5" d="M587,-594.39C587,-577.06 587,-549.96 587,-529.59"/>
<polygon fill="#b20300" stroke="#b20300" stroke-width="5" points="591.38,-529.35 587,-519.35 582.63,-529.35 591.38,-529.35"/>
</a>
</g>
<g id="a_edge8&#45;label"><a xlink:title="syscall.Read &#45;&gt; syscall.read (3.51s)">
<text text-anchor="middle" x="609" y="-551.8" font-family="Times,serif" font-size="14.00"> 3.51s</text>
</a>
</g>
</g>
</g>
</g></svg>
